<?xml version="1.0" encoding="UTF-8" standalone="no"?>
<!-- Created with Inkscape (http://www.inkscape.org/) -->

<svg
   xmlns:dc="http://purl.org/dc/elements/1.1/"
   xmlns:cc="http://creativecommons.org/ns#"
   xmlns:rdf="http://www.w3.org/1999/02/22-rdf-syntax-ns#"
   xmlns:svg="http://www.w3.org/2000/svg"
   xmlns="http://www.w3.org/2000/svg"
   xmlns:sodipodi="http://sodipodi.sourceforge.net/DTD/sodipodi-0.dtd"
   xmlns:inkscape="http://www.inkscape.org/namespaces/inkscape"
   width="128mm"
   height="128mm"
   viewBox="0 0 128 128"
   version="1.1"
   id="svg8"
   inkscape:version="0.92.3 (2405546, 2018-03-11)"
   sodipodi:docname="horecaplanner.svg">
  <defs
     id="defs2" />
  <sodipodi:namedview
     id="base"
     pagecolor="#ffffffff"
     bordercolor="#ffffffff"
     borderopacity="1.0"
     inkscape:pageopacity="0.0"
     inkscape:pageshadow="2"
     inkscape:zoom="0.49497475"
     inkscape:cx="-104.9435"
     inkscape:cy="347.66461"
     inkscape:document-units="mm"
     inkscape:current-layer="svg8"
     showgrid="false"
     inkscape:window-width="1920"
     inkscape:window-height="1017"
     inkscape:window-x="-8"
     inkscape:window-y="-8"
     inkscape:window-maximized="1" />
  <metadata
     id="metadata5">
    <rdf:RDF>
      <cc:Work
         rdf:about="">
        <dc:format>image/svg+xml</dc:format>
        <dc:type
           rdf:resource="http://purl.org/dc/dcmitype/StillImage" />
        <dc:title></dc:title>
      </cc:Work>
    </rdf:RDF>
  </metadata>
  <g
     inkscape:label="Layer 1"
     inkscape:groupmode="layer"
     id="layer1"
     style="display:inline">
    <path
       id="path815"
       d="M 102.73393,21.977679 H 90.033933 V 11.394345 c 0,-3.5070515 -2.84295,-6.3499998 -6.35,-6.3499998 h -71.96667 c -3.5070517,0 -6.3499997,2.8429483 -6.3499997,6.3499998 V 117.22768 c 0,3.50705 2.842948,6.35 6.3499997,6.35 h 71.96667 c 3.50705,0 6.35,-2.84295 6.35,-6.35 v -11.1416 l 21.326997,-9.51892 c 7.61735,-3.399896 12.53966,-10.986823 12.53966,-19.328606 V 43.144346 c 0,-11.6713 -9.49536,-21.166667 -21.16666,-21.166667 z m 4.23333,55.260875 a 4.2380958,4.2380958 0 0 1 -2.50798,3.865827 l -14.425347,6.438371 v -48.63174 h 12.699997 c 2.33415,0 4.23333,1.899179 4.23333,4.233334 z M 60.400596,98.177679 c -2.337858,0 -4.233333,-1.895475 -4.233333,-4.233333 V 34.677679 c 0,-2.337858 1.895475,-4.233333 4.233333,-4.233333 2.337859,0 4.233334,1.895475 4.233334,4.233333 v 59.266667 c 0,2.337858 -1.895475,4.233333 -4.233334,4.233333 z m -25.4,0 c -2.337858,0 -4.233333,-1.895475 -4.233333,-4.233333 V 34.677679 c 0,-2.337858 1.895475,-4.233333 4.233333,-4.233333 2.337859,0 4.233334,1.895475 4.233334,4.233333 v 59.266667 c 0,2.337858 -1.895475,4.233333 -4.233334,4.233333 z"
       inkscape:connector-curvature="0"
       style="fill:#ffdd00;fill-opacity:1;stroke-width:0.26458332" />
    <path
       id="path826"
       d="m 109.20204,115.84564 c -10.248213,10.2482 -26.855825,10.2482 -37.104027,0 -10.248201,-10.24821 -10.248206,-26.855816 4e-6,-37.104026 C 81.374022,69.46561 95.867776,68.582605 106.1249,76.11044 l 3.07713,-3.077136 -2.49738,-2.497386 c -0.58867,-0.588669 -0.58867,-1.551948 0,-2.140616 l 3.56769,-3.567694 c 0.58868,-0.588671 1.55196,-0.588671 2.14062,0 l 10.70309,10.703082 c 0.58866,0.588671 0.58866,1.551946 0,2.140615 l -3.56771,3.567694 c -0.58866,0.58867 -1.55194,0.588673 -2.14061,3e-6 l -2.49738,-2.497386 -3.07713,3.077135 c 2.82739,3.862024 4.46852,8.321644 4.91448,12.870448 h 4.90558 c 0.83842,0 1.51627,0.677857 1.51627,1.516277 l 2e-5,5.048284 c -2e-5,0.83841 -0.67787,1.51627 -1.51628,1.51627 h -5.24451 l -0.10701,-3e-5 c -0.99896,4.78071 -3.37147,9.34736 -7.09973,13.07561 z M 90.293254,103.35871 103.8059,89.846063 c 0.58868,-0.588669 0.58868,-1.551943 1e-5,-2.140614 l -3.5677,-3.567697 c -0.588673,-0.588671 -1.551951,-0.588671 -2.140619,-1e-6 L 84.584942,97.650393 c -0.588671,0.588668 -0.588669,1.551945 10e-7,2.140614 l 3.567697,3.567703 c 0.588671,0.58867 1.551943,0.58867 2.140614,0 z"
       inkscape:connector-curvature="0"
       style="fill:#000000;fill-opacity:1;stroke-width:0.12613703" />
  </g>
</svg>
